<?xml version="1.0" encoding="UTF-8" standalone="no"?>
<!DOCTYPE svg PUBLIC "-//W3C//DTD SVG 1.1//EN" "http://www.w3.org/Graphics/SVG/1.1/DTD/svg11.dtd">
<svg width="100%" height="100%" viewBox="0 0 600 600" version="1.1" xmlns="http://www.w3.org/2000/svg" xmlns:xlink="http://www.w3.org/1999/xlink" xml:space="preserve" xmlns:serif="http://www.serif.com/" style="fill-rule:evenodd;clip-rule:evenodd;stroke-linejoin:round;stroke-miterlimit:2;">
    <g id="dark" transform="matrix(1.00007,0,0,1.00007,0.000117399,-0.0220605)">
        <g transform="matrix(6.12323e-17,-1,1,6.12323e-17,-0.0302516,599.978)">
            <g transform="matrix(6.12278e-17,0.999926,-0.999926,6.12278e-17,599.956,0.0301342)">
                <path d="M325.2,114.067L344.859,133.726C344.859,133.726 555.569,344.436 555.569,344.436L600.014,299.99L389.305,89.281C389.305,89.281 369.646,69.622 369.646,69.622C369.646,69.622 300.024,-0 300.024,-0L300.045,88.912L325.2,114.067L325.2,114.067Z" style="fill:rgb(49,81,190);"/>
            </g>
            <g transform="matrix(6.88453,-6.88453,12.9699,12.9699,-1544.81,-512.696)">
                <path d="M59.625,94.31L53.17,90.885L53.17,114.013L59.625,110.588L59.625,94.31Z" style="fill:rgb(191,63,55);"/>
            </g>
        </g>
        <g transform="matrix(0.642029,0.643903,-0.643903,0.642029,324.415,-84.3183)">
            <path d="M199.921,99.874C199.921,99.874 109.14,210.284 162.864,327.691C214.157,439.785 322.497,463.904 398.484,386.833C399.03,386.278 406.399,409.53 405.046,438.482C402.87,485.029 395.518,500.148 395.518,500.148C395.518,500.148 449.203,435.459 453.194,378.052C457.184,320.646 451.165,269.826 401.297,213.049C351.144,155.947 275.947,163.481 246.818,177.697C217.688,191.913 199.907,213.207 199.907,213.207C199.907,213.207 192.897,181.606 193.843,160.987C194.789,140.369 199.921,99.874 199.921,99.874ZM299.984,242.268C331.854,242.268 357.728,268.142 357.728,300.011C357.728,331.881 331.854,357.754 299.984,357.754C268.115,357.754 242.241,331.881 242.241,300.011C242.241,268.142 268.115,242.268 299.984,242.268Z" style="fill:rgb(216,206,189);fill-opacity:0.8;"/>
        </g>
        <g transform="matrix(0.642029,0.643903,-0.643903,0.642029,222.386,-84.3183)">
            <path d="M199.921,99.874C199.921,99.874 109.14,210.284 162.864,327.691C214.157,439.785 322.497,463.904 398.484,386.833C399.03,386.278 406.399,409.53 405.046,438.482C402.87,485.029 395.518,500.148 395.518,500.148C395.518,500.148 449.203,435.459 453.194,378.052C457.184,320.646 451.165,269.826 401.297,213.049C351.144,155.947 275.947,163.481 246.818,177.697C217.688,191.913 199.907,213.207 199.907,213.207C199.907,213.207 192.897,181.606 193.843,160.987C194.789,140.369 199.921,99.874 199.921,99.874ZM299.984,242.268C331.854,242.268 357.728,268.142 357.728,300.011C357.728,331.881 331.854,357.754 299.984,357.754C268.115,357.754 242.241,331.881 242.241,300.011C242.241,268.142 268.115,242.268 299.984,242.268Z" style="fill:rgb(223,193,143);fill-opacity:0.8;"/>
        </g>
        <g transform="matrix(0.642029,0.643903,-0.643903,0.642029,119.339,-84.3183)">
            <path d="M199.921,99.874C199.921,99.874 109.14,210.284 162.864,327.691C214.157,439.785 322.497,463.904 398.484,386.833C399.03,386.278 406.399,409.53 405.046,438.482C402.87,485.029 395.518,500.148 395.518,500.148C395.518,500.148 449.203,435.459 453.194,378.052C457.184,320.646 451.165,269.826 401.297,213.049C351.144,155.947 275.947,163.481 246.818,177.697C217.688,191.913 199.907,213.207 199.907,213.207C199.907,213.207 192.897,181.606 193.843,160.987C194.789,140.369 199.921,99.874 199.921,99.874ZM299.984,242.268C331.854,242.268 357.728,268.142 357.728,300.011C357.728,331.881 331.854,357.754 299.984,357.754C268.115,357.754 242.241,331.881 242.241,300.011C242.241,268.142 268.115,242.268 299.984,242.268Z" style="fill:rgb(208,143,37);fill-opacity:0.8;"/>
        </g>
    </g>
</svg>
